<svg width="49" height="50" viewBox="0 0 49 50" fill="none" xmlns="http://www.w3.org/2000/svg">
<path d="M11.2122 20.8333C8.91428 20.8333 7.04553 22.7021 7.04553 25C7.04553 27.2979 8.91428 29.1667 11.2122 29.1667C13.5101 29.1667 15.3789 27.2979 15.3789 25C15.3789 22.7021 13.5101 20.8333 11.2122 20.8333ZM11.2122 27.0833C10.0622 27.0833 9.12887 26.15 9.12887 25C9.12887 23.85 10.0622 22.9167 11.2122 22.9167C12.3622 22.9167 13.2955 23.85 13.2955 25C13.2955 26.15 12.3622 27.0833 11.2122 27.0833ZM22.3184 21.0354C22.5289 20.225 22.4101 19.3854 21.9893 18.6667C21.5664 17.9458 20.8893 17.4333 20.0809 17.225C19.2726 17.0104 18.433 17.1313 17.708 17.5562L17.2435 17.8292C16.3955 17.1208 15.408 16.5667 14.3351 16.1917V15.6271C14.3351 13.9042 12.933 12.5021 11.2101 12.5021C9.4872 12.5021 8.08512 13.9042 8.08512 15.6271V16.1917C7.0122 16.5667 6.02678 17.1208 5.17678 17.8292L4.7122 17.5562C3.98928 17.1313 3.1497 17.0104 2.33928 17.225C1.53095 17.4354 0.853866 17.9479 0.433032 18.6646C0.0101157 19.3854 -0.108634 20.225 0.101782 21.0354C0.312199 21.8438 0.824699 22.5208 1.54137 22.9417L2.02887 23.2292C1.89553 23.8542 1.83095 24.4292 1.83095 25.0021C1.83095 25.575 1.89345 26.15 2.02678 26.7729L1.54137 27.0604C0.822616 27.4833 0.310116 28.1604 0.101782 28.9687C-0.108634 29.7792 0.0101157 30.6187 0.430949 31.3375C0.853866 32.0583 1.53095 32.5708 2.33928 32.7792C3.1497 32.9937 3.98928 32.8729 4.7122 32.4479L5.17678 32.175C6.0247 32.8833 7.0122 33.4375 8.08512 33.8125V34.3771C8.08512 36.1 9.4872 37.5021 11.2101 37.5021C12.933 37.5021 14.3351 36.1 14.3351 34.3771V33.8125C15.408 33.4375 16.3934 32.8833 17.2435 32.175L17.708 32.4479C18.433 32.8729 19.2726 32.9937 20.0809 32.7792C20.8893 32.5687 21.5664 32.0562 21.9872 31.3396C22.4101 30.6187 22.5289 29.7792 22.3184 28.9687C22.108 28.1604 21.5955 27.4833 20.8768 27.0583L20.3934 26.7729C20.5247 26.15 20.5893 25.575 20.5893 25.0021C20.5893 24.4292 20.5268 23.8542 20.3914 23.2292L20.8768 22.9437C21.5976 22.5208 22.1101 21.8438 22.3184 21.0354ZM18.1914 23.0104C18.406 23.7625 18.5039 24.3958 18.5039 25C18.5039 25.6042 18.4039 26.2375 18.1914 26.9896C18.0622 27.4458 18.2559 27.9312 18.6664 28.1729L19.8226 28.85C20.0643 28.9917 20.2351 29.2187 20.3039 29.4896C20.3726 29.7583 20.3351 30.0396 20.1914 30.2792C20.0518 30.5187 19.8268 30.6896 19.556 30.7583C19.2809 30.825 19.0039 30.7896 18.7664 30.6479L17.6414 29.9854C17.2351 29.7437 16.7122 29.8104 16.3768 30.1458C15.4789 31.0458 14.3268 31.6937 13.0351 32.0271C12.5747 32.1479 12.2539 32.5625 12.2539 33.0354V34.3729C12.2539 34.9458 11.7851 35.4146 11.2122 35.4146C10.6393 35.4146 10.1705 34.9458 10.1705 34.3729V33.0354C10.1705 32.5604 9.8497 32.1458 9.38928 32.0271C8.0997 31.6937 6.94553 31.0437 6.04762 30.1458C5.84762 29.9437 5.57887 29.8417 5.31012 29.8417C5.12887 29.8417 4.94553 29.8875 4.78095 29.9854L3.65595 30.6479C3.42053 30.7896 3.14137 30.8292 2.86637 30.7583C2.59553 30.6896 2.37262 30.5187 2.22887 30.2771C2.08928 30.0396 2.0497 29.7583 2.11845 29.4896C2.1872 29.2187 2.35803 28.9937 2.59762 28.8521L3.75595 28.1729C4.16428 27.9312 4.36012 27.4437 4.23095 26.9896C4.01637 26.2375 3.91845 25.6042 3.91845 25C3.91845 24.3958 4.01845 23.7625 4.23095 23.0104C4.36012 22.5542 4.16845 22.0687 3.75803 21.8292L2.59762 21.1458C2.35803 21.0062 2.1872 20.7792 2.11845 20.5104C2.0497 20.2417 2.0872 19.9604 2.23095 19.7208C2.37053 19.4812 2.59553 19.3104 2.86637 19.2417C3.1372 19.1687 3.41428 19.2104 3.65595 19.3521L4.78095 20.0146C5.18928 20.2583 5.7122 20.1917 6.04553 19.8542C6.94345 18.9542 8.09553 18.3062 9.3872 17.9729C9.84762 17.8521 10.1684 17.4375 10.1684 16.9646V15.6271C10.1684 15.0542 10.6372 14.5854 11.2101 14.5854C11.783 14.5854 12.2518 15.0542 12.2518 15.6271V16.9646C12.2518 17.4396 12.5726 17.8542 13.033 17.9729C14.3226 18.3062 15.4768 18.9562 16.3747 19.8542C16.708 20.1896 17.2309 20.2563 17.6393 20.0146L18.7643 19.3521C18.9997 19.2146 19.283 19.1729 19.5539 19.2417C19.8247 19.3104 20.0476 19.4812 20.1914 19.7229C20.3309 19.9604 20.3705 20.2417 20.3018 20.5104C20.233 20.7792 20.0622 21.0042 19.8205 21.1479L18.6622 21.8292C18.2539 22.0687 18.0601 22.5562 18.1893 23.0104H18.1914ZM36.3184 26.0417C36.8184 28.9917 39.3726 31.25 42.4622 31.25C45.908 31.25 48.7122 28.4458 48.7122 25C48.7122 21.5542 45.908 18.75 42.4622 18.75C39.3726 18.75 36.8164 21.0083 36.3184 23.9583H29.9622V12.5C29.9622 9.62708 32.2976 7.29167 35.1705 7.29167H36.3184C36.8184 10.2417 39.3726 12.5 42.4622 12.5C45.908 12.5 48.7122 9.69583 48.7122 6.25C48.7122 2.80417 45.908 0 42.4622 0C39.3726 0 36.8164 2.25833 36.3184 5.20833H35.1705C31.1497 5.20833 27.8789 8.47917 27.8789 12.5V23.9583H24.7539C24.1789 23.9583 23.7122 24.425 23.7122 25C23.7122 25.575 24.1789 26.0417 24.7539 26.0417H27.8789V37.5C27.8789 41.5208 31.1497 44.7917 35.1705 44.7917H36.3184C36.8184 47.7417 39.3726 50 42.4622 50C45.908 50 48.7122 47.1958 48.7122 43.75C48.7122 40.3042 45.908 37.5 42.4622 37.5C39.3726 37.5 36.8164 39.7583 36.3184 42.7083H35.1705C32.2976 42.7083 29.9622 40.3729 29.9622 37.5V26.0417H36.3184ZM42.4622 20.8333C44.7601 20.8333 46.6289 22.7021 46.6289 25C46.6289 27.2979 44.7601 29.1667 42.4622 29.1667C40.1643 29.1667 38.2955 27.2979 38.2955 25C38.2955 22.7021 40.1643 20.8333 42.4622 20.8333ZM42.4622 2.08333C44.7601 2.08333 46.6289 3.95208 46.6289 6.25C46.6289 8.54792 44.7601 10.4167 42.4622 10.4167C40.1643 10.4167 38.2955 8.54792 38.2955 6.25C38.2955 3.95208 40.1643 2.08333 42.4622 2.08333ZM42.4622 39.5833C44.7601 39.5833 46.6289 41.4521 46.6289 43.75C46.6289 46.0479 44.7601 47.9167 42.4622 47.9167C40.1643 47.9167 38.2955 46.0479 38.2955 43.75C38.2955 41.4521 40.1643 39.5833 42.4622 39.5833Z" fill="#EDF0F5"/>
</svg>