<svg width="50" height="50" viewBox="0 0 50 50" fill="none" xmlns="http://www.w3.org/2000/svg">
<path d="M39.5833 23.9583V38.5417C39.5833 39.1167 39.1167 39.5833 38.5417 39.5833C37.9667 39.5833 37.5 39.1167 37.5 38.5417V23.9583C37.5 23.3833 37.9667 22.9167 38.5417 22.9167C39.1167 22.9167 39.5833 23.3833 39.5833 23.9583ZM48.9583 18.75C48.3833 18.75 47.9167 19.2167 47.9167 19.7917V40.625C47.9167 44.6458 44.6458 47.9167 40.625 47.9167H9.375C5.35417 47.9167 2.08333 44.6458 2.08333 40.625V9.375C2.08333 5.35417 5.35417 2.08333 9.375 2.08333H30.2083C30.7833 2.08333 31.25 1.61667 31.25 1.04167C31.25 0.466667 30.7833 0 30.2083 0H9.375C4.20625 0 0 4.20625 0 9.375V40.625C0 45.7937 4.20625 50 9.375 50H40.625C45.7937 50 50 45.7937 50 40.625V19.7917C50 19.2167 49.5333 18.75 48.9583 18.75ZM30.8812 8.78542L36.7771 6.55417L39.1375 0.654167C39.4542 -0.1375 40.7542 -0.1375 41.0729 0.654167L43.4375 6.5625L49.3458 8.92708C49.7417 9.08542 50 9.46875 50 9.89375C50 10.3187 49.7396 10.7021 49.3458 10.8604L43.4375 13.225L41.0729 19.1333C40.9146 19.5292 40.5312 19.7875 40.1062 19.7875C39.6812 19.7875 39.2979 19.5271 39.1396 19.1333L36.7708 13.2125L30.8479 10.7167C30.4562 10.55 30.2021 10.1625 30.2104 9.7375C30.2188 9.3125 30.4854 8.93333 30.8833 8.78333L30.8812 8.78542ZM34.0542 9.8125L37.9792 11.4667C38.2354 11.575 38.4375 11.7812 38.5417 12.0396L40.1042 15.9458L41.6667 12.0396C41.7729 11.775 41.9812 11.5646 42.2479 11.4583L46.1542 9.89583L42.2479 8.33333C41.9833 8.22708 41.7729 8.01875 41.6667 7.75208L40.1042 3.84583L38.5417 7.75208C38.4333 8.02292 38.2167 8.23542 37.9417 8.33958L34.0542 9.8125ZM23.3167 13.0021L31.2021 38.2333C31.375 38.7812 31.0687 39.3667 30.5187 39.5375C30.4167 39.5708 30.3104 39.5854 30.2083 39.5854C29.7646 39.5854 29.3542 39.3 29.2146 38.8542L26.8396 31.2521H12.7458L10.3708 38.8542C10.1979 39.4042 9.6125 39.7104 9.06667 39.5375C8.51667 39.3667 8.21042 38.7812 8.38333 38.2333L16.2687 13.0021C16.7604 11.4271 18.1458 10.4083 19.7938 10.4083C21.4438 10.4083 22.825 11.4271 23.3167 13.0021ZM26.1875 29.1687L21.3292 13.6229C21.0687 12.7896 20.3646 12.4937 19.7917 12.4937C19.2188 12.4937 18.5146 12.7917 18.2542 13.625L13.3958 29.1687H26.1875Z" fill="#EDF0F5"/>
</svg>