<svg width="50" height="50" viewBox="0 0 50 50" fill="none" xmlns="http://www.w3.org/2000/svg">
<path d="M44.7917 31.25H23.9583C21.0875 31.25 18.75 33.5854 18.75 36.4583V40.625C18.75 43.4979 21.0875 45.8333 23.9583 45.8333H44.7917C47.6646 45.8333 50 43.4979 50 40.625V36.4583C50 33.5854 47.6646 31.25 44.7917 31.25ZM29.1667 43.75H23.9583C22.2354 43.75 20.8333 42.3479 20.8333 40.625V36.4583C20.8333 34.7354 22.2354 33.3333 23.9583 33.3333H29.1667V43.75ZM47.9167 40.625C47.9167 42.3479 46.5146 43.75 44.7917 43.75H31.25V33.3333H44.7917C46.5146 33.3333 47.9167 34.7354 47.9167 36.4583V40.625ZM44.7917 4.16667H23.9583C21.0875 4.16667 18.75 6.50208 18.75 9.375V13.5417C18.75 16.4146 21.0875 18.75 23.9583 18.75H44.7917C47.6646 18.75 50 16.4146 50 13.5417V9.375C50 6.50208 47.6646 4.16667 44.7917 4.16667ZM37.5 16.6667H23.9583C22.2354 16.6667 20.8333 15.2646 20.8333 13.5417V9.375C20.8333 7.65208 22.2354 6.25 23.9583 6.25H37.5V16.6667ZM47.9167 13.5417C47.9167 15.2646 46.5146 16.6667 44.7917 16.6667H39.5833V6.25H44.7917C46.5146 6.25 47.9167 7.65208 47.9167 9.375V13.5417ZM8.33333 12.5C11.7792 12.5 14.5833 9.69583 14.5833 6.25C14.5833 2.80417 11.7792 0 8.33333 0C4.8875 0 2.08333 2.80417 2.08333 6.25C2.08333 9.69583 4.8875 12.5 8.33333 12.5ZM8.33333 2.08333C10.6312 2.08333 12.5 3.95208 12.5 6.25C12.5 8.54792 10.6312 10.4167 8.33333 10.4167C6.03542 10.4167 4.16667 8.54792 4.16667 6.25C4.16667 3.95208 6.03542 2.08333 8.33333 2.08333ZM16.6667 19.7917V22.9167H14.5833V19.7917C14.5833 18.0687 13.1812 16.6667 11.4583 16.6667H5.20833C3.48542 16.6667 2.08333 18.0687 2.08333 19.7917V22.9167H0V19.7917C0 16.9187 2.3375 14.5833 5.20833 14.5833H11.4583C14.3292 14.5833 16.6667 16.9187 16.6667 19.7917ZM14.5833 33.3333C14.5833 29.8875 11.7792 27.0833 8.33333 27.0833C4.8875 27.0833 2.08333 29.8875 2.08333 33.3333C2.08333 36.7792 4.8875 39.5833 8.33333 39.5833C11.7792 39.5833 14.5833 36.7792 14.5833 33.3333ZM4.16667 33.3333C4.16667 31.0354 6.03542 29.1667 8.33333 29.1667C10.6312 29.1667 12.5 31.0354 12.5 33.3333C12.5 35.6312 10.6312 37.5 8.33333 37.5C6.03542 37.5 4.16667 35.6312 4.16667 33.3333ZM16.6667 46.875V50H14.5833V46.875C14.5833 45.1521 13.1812 43.75 11.4583 43.75H5.20833C3.48542 43.75 2.08333 45.1521 2.08333 46.875V50H0V46.875C0 44.0021 2.3375 41.6667 5.20833 41.6667H11.4583C14.3292 41.6667 16.6667 44.0021 16.6667 46.875Z" fill="#EDF0F5"/>
</svg>