<svg width="42" height="50" viewBox="0 0 42 50" fill="none" xmlns="http://www.w3.org/2000/svg">
<path d="M8.33333 39.5833H33.3333V27.0833H8.33333V39.5833ZM10.4167 29.1667H31.25V37.5H10.4167V29.1667ZM18.75 20.8333H8.33333V18.75H18.75V20.8333ZM18.75 12.5H8.33333V10.4167H18.75V12.5ZM26.4729 0H5.20833C2.3375 0 0 2.3375 0 5.20833V50H41.6667V15.1937L26.4729 0ZM27.0833 3.55625L38.1104 14.5833H27.0833V3.55625ZM2.08333 47.9167V5.20833C2.08333 3.48542 3.48542 2.08333 5.20833 2.08333H25V16.6667H39.5833V47.9167H2.08333Z" fill="#181818"/>
</svg>