<svg width="58" height="51" viewBox="0 0 58 51" fill="none" xmlns="http://www.w3.org/2000/svg">
<path d="M51.1905 19.5476C48.3143 19.5476 45.9119 21.5952 45.3595 24.3095H37.9762C37.6619 21.8286 36.4048 19.6595 34.5595 18.1524L38.3929 12.0071C39.0452 12.2524 39.7429 12.4048 40.4786 12.4048C43.7619 12.4048 46.431 9.73571 46.431 6.45238C46.431 3.16905 43.7619 0.5 40.4786 0.5C37.1952 0.5 34.5262 3.16905 34.5262 6.45238C34.5262 8.14286 35.2405 9.6619 36.3762 10.7452L32.5524 16.8738C31.3381 16.3119 29.9976 15.9762 28.5738 15.9762C27.15 15.9762 25.8095 16.3119 24.5929 16.8762L20.769 10.7476C21.9048 9.6619 22.619 8.14286 22.619 6.45238C22.619 3.16905 19.95 0.5 16.6667 0.5C13.3833 0.5 10.7143 3.16905 10.7143 6.45238C10.7143 9.73571 13.3833 12.4048 16.6667 12.4048C17.4024 12.4048 18.1 12.2524 18.75 12.0095L22.5833 18.1548C20.7357 19.6619 19.481 21.8286 19.1667 24.3095H11.7833C11.231 21.5952 8.82619 19.5476 5.95238 19.5476C2.66905 19.5476 0 22.2167 0 25.5C0 28.7833 2.66905 31.4524 5.95238 31.4524C8.82857 31.4524 11.231 29.4048 11.7833 26.6905H19.1667C19.481 29.1714 20.7357 31.3381 22.581 32.8452L18.7476 38.9905C18.0976 38.7452 17.4 38.5952 16.6643 38.5952C13.381 38.5952 10.7119 41.2643 10.7119 44.5476C10.7119 47.831 13.381 50.5 16.6643 50.5C19.9476 50.5 22.6167 47.831 22.6167 44.5476C22.6167 42.8571 21.9 41.3357 20.7643 40.2524L24.5881 34.1238C25.8024 34.6881 27.1429 35.0238 28.569 35.0238C29.9952 35.0238 31.3333 34.6881 32.5476 34.1238L36.3714 40.2524C35.2357 41.3357 34.5214 42.8571 34.5214 44.5476C34.5214 47.831 37.1905 50.5 40.4738 50.5C43.7571 50.5 46.4262 47.831 46.4262 44.5476C46.4262 41.2643 43.7571 38.5952 40.4738 38.5952C39.7381 38.5952 39.0405 38.7476 38.3905 38.9929L34.5571 32.8476C36.4048 31.3405 37.6595 29.1738 37.9738 26.6905H45.3571C45.9095 29.4048 48.3143 31.4524 51.1881 31.4524C54.4714 31.4524 57.1405 28.7833 57.1405 25.5C57.1405 22.2167 54.4738 19.5476 51.1905 19.5476ZM40.4762 2.88095C42.4452 2.88095 44.0476 4.48333 44.0476 6.45238C44.0476 8.42143 42.4452 10.0238 40.4762 10.0238C38.5071 10.0238 36.9048 8.42143 36.9048 6.45238C36.9048 4.48333 38.5071 2.88095 40.4762 2.88095ZM13.0952 6.45238C13.0952 4.48333 14.6976 2.88095 16.6667 2.88095C18.6357 2.88095 20.2381 4.48333 20.2381 6.45238C20.2381 8.42143 18.6357 10.0238 16.6667 10.0238C14.6976 10.0238 13.0952 8.42143 13.0952 6.45238ZM5.95238 29.0714C3.98333 29.0714 2.38095 27.469 2.38095 25.5C2.38095 23.531 3.98333 21.9286 5.95238 21.9286C7.92143 21.9286 9.52381 23.531 9.52381 25.5C9.52381 27.469 7.92143 29.0714 5.95238 29.0714ZM16.6667 48.119C14.6976 48.119 13.0952 46.5167 13.0952 44.5476C13.0952 42.5786 14.6976 40.9762 16.6667 40.9762C18.6357 40.9762 20.2381 42.5786 20.2381 44.5476C20.2381 46.5167 18.6357 48.119 16.6667 48.119ZM44.0476 44.5476C44.0476 46.5167 42.4452 48.119 40.4762 48.119C38.5071 48.119 36.9048 46.5167 36.9048 44.5476C36.9048 42.5786 38.5071 40.9762 40.4762 40.9762C42.4452 40.9762 44.0476 42.5786 44.0476 44.5476ZM28.5714 32.6429C24.6333 32.6429 21.4286 29.4381 21.4286 25.5C21.4286 21.5619 24.6333 18.3571 28.5714 18.3571C32.5095 18.3571 35.7143 21.5619 35.7143 25.5C35.7143 29.4381 32.5095 32.6429 28.5714 32.6429ZM51.1905 29.0714C49.2214 29.0714 47.619 27.469 47.619 25.5C47.619 23.531 49.2214 21.9286 51.1905 21.9286C53.1595 21.9286 54.7619 23.531 54.7619 25.5C54.7619 27.469 53.1595 29.0714 51.1905 29.0714Z" fill="#181818"/>
</svg>