<svg width="50" height="50" viewBox="0 0 50 50" fill="none" xmlns="http://www.w3.org/2000/svg">
<path d="M50 48.9583C50 49.5333 49.5333 50 48.9583 50H5.20833C2.3375 50 0 47.6625 0 44.7917V1.04167C0 0.466667 0.466667 0 1.04167 0C1.61667 0 2.08333 0.466667 2.08333 1.04167V44.7917C2.08333 46.5146 3.48542 47.9167 5.20833 47.9167H48.9583C49.5333 47.9167 50 48.3833 50 48.9583ZM44.7917 10.4167H36.4583C35.8833 10.4167 35.4167 10.8833 35.4167 11.4583C35.4167 12.0333 35.8833 12.5 36.4583 12.5H44.7917C45.2729 12.5 45.7292 12.6104 46.1375 12.8042L34.1146 24.0833C32.8979 25.3021 30.9146 25.3042 29.6292 24.0229L27.6417 22.3583C25.6771 20.3917 22.2312 20.4021 20.2875 22.3479L8.65 33.6271C8.2375 34.0271 8.22708 34.6875 8.62708 35.1C8.83125 35.3104 9.10417 35.4167 9.375 35.4167C9.63542 35.4167 9.89792 35.3187 10.1 35.1229L21.7479 23.8333C22.9271 22.6542 24.9208 22.5917 26.2333 23.8937L28.2208 25.5583C30.25 27.5896 33.5562 27.5896 35.5625 25.5812L47.5854 14.3021L47.6083 14.2792C47.8042 14.6875 47.9146 15.1437 47.9146 15.6271V23.9604C47.9146 24.5354 48.3812 25.0021 48.9562 25.0021C49.5312 25.0021 49.9979 24.5354 49.9979 23.9604V15.625C49.9979 12.7542 47.6625 10.4167 44.7917 10.4167Z" fill="#181818"/>
</svg>